<mxfile host="app.diagrams.net" modified="2024-08-27T11:44:55.275Z" agent="Mozilla/5.0 (Windows NT 10.0; Win64; x64) AppleWebKit/537.36 (KHTML, like Gecko) Chrome/124.0.0.0 Safari/537.36" version="21.7.0" etag="IWs7-1HXF_zsxTEu4k4Z" type="github">
  <diagram name="第 1 页" id="_ok-8zPEw34e-IFgDoh3">
    <mxGraphModel>
      <root>
        <mxCell id="0" />
        <mxCell id="1" parent="0" />
      </root>
    </mxGraphModel>
  </diagram>
</mxfile>
